<?xml version="1.0" encoding="utf-8"?>
<!-- Generator: Adobe Illustrator 19.0.0, SVG Export Plug-In . SVG Version: 6.00 Build 0)  -->
<svg version="1.1" id="Layer_1" xmlns="http://www.w3.org/2000/svg" xmlns:xlink="http://www.w3.org/1999/xlink" x="0px" y="0px"
	 viewBox="0 0 493.3 177.5" style="enable-background:new 0 0 493.3 177.5;" xml:space="preserve">
<style type="text/css">
	.st0{fill:#CCB66D;}
	.st1{fill:#F8F7F7;}
</style>
<g>
	<g>
		<path class="st0" d="M153.3,119v-2.8h3.7v-5.3h18.2v6.2h8.7c0,0-0.7-19.5,0.5-25.2c1.2-5.7,6-25.8,14.2-26.7
			c8.2-0.8,12.5,27.2,12.5,27.2l0.2,5.5h2.2v-4.2l2.2-5l1.3,5.3l0.1,22l10.5,0.2l0.2-9.1c0,0,3.8-5,9.8-1V91.3l5-1.5
			c0,0-0.5-21.1,12-23.2c1-0.2,3.2-16.2,3.2-16.2l1.8-9.2l1.8,9.5l2.9,15.8c12.1,1.6,11.4,23.5,11.4,23.5l4.1,1l0.1,19.2l4.7,0
			l0-4.2h4l0.1,4.1h13l0,3.1l3.2,0.1v1.1l-0.2,4.3h4l-0.1-2.6h3v-2.1l2.7-0.2l0-1.1h24.4v-4.7h5.5v10.2h3.5v-5l16.3-1.8v5.2h56.5
			v2.2h8.2v-18.7l2.8-2l1.1-8.3l1.1,8.3l2.4,2v9.1l1.9,0.1v-5.3h16.2v3h10.8V94.6h10.7v23.8h17.5v59H0l0-59h23.7V66.1l2.3-2.3v-6
			l2.5-2.5l4.2-4.2v-16c0,0,6.6-16.1,7-27.8H41c0,0,1,8.1,1.9,11.6c0.8,3.1,3.9,14.2,4.6,16.6l0.2,15.3l6.5,7.2l0.2,5.4l1.9,2.7
			l0,52.3H62l2,0l0-0.6V111l7.5,0l0,7.3h1.2v-5.8h12.5v6l2.8,0"/>
		<polyline class="st0" points="110.9,119.8 120.1,119.8 120.1,110.2 131.6,110.2 131.6,119.3 144.1,119.3 144.1,111.5 147.9,111.5 
			147.9,120.2 158.2,120.2 		"/>
		<line class="st0" x1="81.9" y1="119.2" x2="98.4" y2="119.2"/>
		<circle class="st0" cx="308.7" cy="63.4" r="4.1"/>
		<circle class="st0" cx="313.4" cy="49.2" r="4.1"/>
		<circle class="st0" cx="321.2" cy="35.9" r="4.1"/>
		<circle class="st0" cx="331.2" cy="25.1" r="4.1"/>
		<circle class="st0" cx="343.2" cy="16.1" r="4.1"/>
		<circle class="st0" cx="356.7" cy="8.9" r="4.1"/>
		<circle class="st0" cx="370.8" cy="5.2" r="4.1"/>
		<circle class="st0" cx="415.4" cy="10.4" r="4.1"/>
		<circle class="st0" cx="428.4" cy="18.1" r="4.1"/>
		<circle class="st0" cx="439.7" cy="27.6" r="4.1"/>
		<circle class="st0" cx="306.9" cy="77.9" r="4.1"/>
		<circle class="st0" cx="308.7" cy="93.4" r="4.1"/>
		<circle class="st0" cx="313.6" cy="107.5" r="4.1"/>
		<circle class="st0" cx="449.4" cy="39.9" r="4.1"/>
		<circle class="st0" cx="455.9" cy="53.6" r="4.1"/>
		<circle class="st0" cx="459.6" cy="68.5" r="4.1"/>
		<circle class="st0" cx="460.6" cy="83.5" r="4.1"/>
		<path class="st0" d="M383.9,7.9c-40.3,0-73,31.5-73,70.3c0,38.8,32.7,70.3,73,70.3c40.3,0,73-31.5,73-70.3
			C456.9,39.4,424.2,7.9,383.9,7.9z M383.9,140.1c-35.5,0-64.3-27.7-64.3-61.9c0-34.2,28.8-61.9,64.3-61.9
			c35.5,0,64.3,27.7,64.3,61.9C448.2,112.4,419.4,140.1,383.9,140.1z"/>
		<circle class="st0" cx="385.9" cy="4.1" r="4.1"/>
		<circle class="st0" cx="401.4" cy="6.1" r="4.1"/>
		<circle class="st0" cx="457.8" cy="98" r="4.1"/>
		<polygon class="st0" points="378.3,121.5 381.1,82.9 385.2,83.6 382.3,121.1 		"/>
		<circle class="st0" cx="384.2" cy="79.2" r="6"/>
		<polygon class="st0" points="394.3,120 383.8,84.4 387.9,83.5 398,118.2 		"/>
	</g>
</g>
<g>
	<path class="st1" d="M16.2,166.3v-32.9h2.3v30.9h15.2v2H16.2z"/>
	<path class="st1" d="M50,166.9c-2,0-3.8-0.4-5.4-1.2c-1.7-0.8-3.1-2-4.3-3.5c-1.2-1.5-2.1-3.3-2.8-5.4c-0.7-2.1-1-4.5-1-7.1
		s0.3-4.9,1-7c0.7-2.1,1.6-3.9,2.8-5.4c1.2-1.5,2.6-2.6,4.3-3.4c1.7-0.8,3.5-1.2,5.4-1.2c2,0,3.8,0.4,5.5,1.2
		c1.7,0.8,3.1,1.9,4.3,3.4c1.2,1.5,2.1,3.3,2.8,5.4c0.7,2.1,1,4.4,1,7s-0.3,5-1,7.1c-0.7,2.1-1.6,3.9-2.8,5.4
		c-1.2,1.5-2.6,2.7-4.3,3.5C53.8,166.5,52,166.9,50,166.9z M50,164.8c1.7,0,3.2-0.4,4.6-1.1c1.4-0.7,2.5-1.7,3.5-3.1
		c1-1.3,1.7-2.9,2.3-4.8c0.5-1.8,0.8-3.9,0.8-6.2c0-2.3-0.3-4.3-0.8-6.1c-0.5-1.8-1.3-3.4-2.3-4.7c-1-1.3-2.2-2.3-3.5-3
		c-1.4-0.7-2.9-1.1-4.6-1.1c-1.7,0-3.2,0.4-4.6,1.1c-1.4,0.7-2.6,1.7-3.5,3c-1,1.3-1.7,2.8-2.2,4.7c-0.5,1.8-0.8,3.9-0.8,6.1
		c0,2.3,0.3,4.4,0.8,6.2c0.5,1.9,1.3,3.4,2.2,4.8c1,1.3,2.1,2.3,3.5,3.1C46.8,164.5,48.3,164.8,50,164.8z"/>
	<path class="st1" d="M71.1,166.3v-32.9h2.4l13.9,23.3l3.7,6.5h0.2c-0.1-1.6-0.1-3.2-0.2-4.8c-0.1-1.6-0.1-3.2-0.1-4.8v-20.2h2.2
		v32.9h-2.4l-13.9-23.2l-3.7-6.5H73c0.1,1.6,0.1,3.2,0.2,4.7c0.1,1.5,0.1,3.1,0.1,4.7v20.4H71.1z"/>
	<path class="st1" d="M102.9,166.3v-32.9h7.6c2.5,0,4.7,0.4,6.6,1.2c1.9,0.8,3.4,1.9,4.7,3.3c1.2,1.4,2.2,3.1,2.8,5.1
		c0.6,2,0.9,4.2,0.9,6.8s-0.3,4.8-0.9,6.8c-0.6,2-1.5,3.8-2.8,5.2c-1.2,1.5-2.8,2.6-4.6,3.4c-1.9,0.8-4.1,1.2-6.6,1.2H102.9z
		 M105.2,164.4h5.1c2.2,0,4.2-0.4,5.8-1.1c1.6-0.7,2.9-1.7,4-3c1-1.3,1.8-2.8,2.3-4.6c0.5-1.8,0.8-3.8,0.8-5.9
		c0-2.1-0.2-4.1-0.8-5.9c-0.5-1.8-1.3-3.3-2.3-4.5c-1-1.3-2.4-2.2-4-3c-1.6-0.7-3.5-1-5.8-1h-5.1V164.4z"/>
	<path class="st1" d="M144.6,166.9c-2,0-3.8-0.4-5.4-1.2c-1.7-0.8-3.1-2-4.3-3.5c-1.2-1.5-2.1-3.3-2.8-5.4c-0.7-2.1-1-4.5-1-7.1
		s0.3-4.9,1-7c0.7-2.1,1.6-3.9,2.8-5.4c1.2-1.5,2.6-2.6,4.3-3.4c1.7-0.8,3.5-1.2,5.4-1.2c2,0,3.8,0.4,5.5,1.2
		c1.7,0.8,3.1,1.9,4.3,3.4c1.2,1.5,2.1,3.3,2.8,5.4c0.7,2.1,1,4.4,1,7s-0.3,5-1,7.1c-0.7,2.1-1.6,3.9-2.8,5.4
		c-1.2,1.5-2.6,2.7-4.3,3.5C148.4,166.5,146.6,166.9,144.6,166.9z M144.6,164.8c1.7,0,3.2-0.4,4.6-1.1c1.4-0.7,2.5-1.7,3.5-3.1
		c1-1.3,1.7-2.9,2.3-4.8c0.5-1.8,0.8-3.9,0.8-6.2c0-2.3-0.3-4.3-0.8-6.1c-0.5-1.8-1.3-3.4-2.3-4.7c-1-1.3-2.2-2.3-3.5-3
		c-1.4-0.7-2.9-1.1-4.6-1.1c-1.7,0-3.2,0.4-4.6,1.1c-1.4,0.7-2.6,1.7-3.5,3c-1,1.3-1.7,2.8-2.2,4.7c-0.5,1.8-0.8,3.9-0.8,6.1
		c0,2.3,0.3,4.4,0.8,6.2c0.5,1.9,1.3,3.4,2.2,4.8c1,1.3,2.1,2.3,3.5,3.1C141.4,164.5,142.9,164.8,144.6,164.8z"/>
	<path class="st1" d="M165.7,166.3v-32.9h2.4l13.9,23.3l3.7,6.5h0.2c-0.1-1.6-0.1-3.2-0.2-4.8c-0.1-1.6-0.1-3.2-0.1-4.8v-20.2h2.2
		v32.9h-2.4l-13.9-23.2l-3.7-6.5h-0.2c0.1,1.6,0.1,3.2,0.2,4.7c0.1,1.5,0.1,3.1,0.1,4.7v20.4H165.7z"/>
	<path class="st1" d="M219.6,166.9c-2.1,0-4.1-0.4-5.8-1.2c-1.7-0.8-3.2-1.9-4.5-3.4c-1.2-1.5-2.2-3.3-2.9-5.4c-0.7-2.1-1-4.5-1-7.1
		c0-2.6,0.4-5,1-7.1c0.7-2.1,1.7-3.9,3-5.4c1.3-1.5,2.8-2.6,4.6-3.4c1.8-0.8,3.8-1.2,5.9-1.2c1.1,0,2.1,0.1,3,0.3
		c0.9,0.2,1.7,0.5,2.5,0.9c0.7,0.4,1.4,0.8,2,1.3c0.6,0.5,1.1,0.9,1.5,1.4l-1.3,1.6c-0.9-0.9-1.9-1.7-3.1-2.4c-1.2-0.7-2.7-1-4.5-1
		c-1.9,0-3.6,0.4-5.1,1.1c-1.5,0.7-2.8,1.7-3.8,3c-1,1.3-1.9,2.8-2.4,4.7c-0.6,1.8-0.9,3.9-0.9,6.2c0,2.3,0.3,4.4,0.8,6.2
		c0.5,1.8,1.3,3.4,2.3,4.7c1,1.3,2.3,2.3,3.8,3c1.5,0.7,3.2,1.1,5,1.1c1.5,0,2.9-0.2,4.2-0.6c1.3-0.4,2.4-1,3.2-1.9v-10.2h-7.9v-2
		h10.1v13.1c-1,1.1-2.4,2-4,2.7C223.6,166.6,221.7,166.9,219.6,166.9z"/>
	<path class="st1" d="M233.3,166.3l11.6-32.9h2.3l11.6,32.9h-2.4l-3.9-11.3h-13l-3.9,11.3H233.3z M242.3,146.9l-2.1,6.1h11.7
		l-2.1-6.1c-0.7-2-1.3-3.9-1.9-5.6c-0.6-1.8-1.2-3.7-1.8-5.8H246c-0.6,2-1.1,3.9-1.8,5.8C243.6,143.1,243,145,242.3,146.9z"/>
	<path class="st1" d="M264.1,166.3v-32.9h3.2l6.9,19.4c0.4,1.2,0.9,2.4,1.3,3.6c0.4,1.2,0.9,2.4,1.3,3.7h0.2
		c0.4-1.2,0.9-2.5,1.2-3.7c0.4-1.2,0.8-2.4,1.2-3.6l6.9-19.4h3.3v32.9h-2.2v-21.6c0-1.4,0-2.8,0.1-4.4c0.1-1.6,0.1-3.1,0.2-4.5h-0.2
		l-2.6,7.3l-7.1,19.6h-2l-7.1-19.6l-2.6-7.3h-0.2c0.1,1.4,0.1,2.9,0.2,4.5c0.1,1.6,0.1,3.1,0.1,4.4v21.6H264.1z"/>
	<path class="st1" d="M299.4,166.3v-32.9h18v2h-15.8v12.5h13.2v2h-13.2v14.5h16.2v2H299.4z"/>
	<path class="st1" d="M333.7,166.9c-2.4,0-4.5-0.5-6.4-1.4s-3.4-2.1-4.8-3.6l1.5-1.6c1.2,1.4,2.6,2.4,4.3,3.2
		c1.7,0.8,3.4,1.2,5.3,1.2c2.5,0,4.5-0.6,6-1.8c1.5-1.2,2.2-2.8,2.2-4.8c0-1-0.2-1.9-0.5-2.6c-0.3-0.7-0.7-1.3-1.3-1.9
		c-0.5-0.5-1.2-1-1.9-1.3c-0.7-0.4-1.5-0.7-2.3-1.1l-5-2.2c-0.7-0.3-1.5-0.7-2.2-1.1c-0.8-0.4-1.5-1-2.2-1.6s-1.2-1.4-1.6-2.3
		c-0.4-0.9-0.7-1.9-0.7-3.2c0-1.2,0.2-2.3,0.7-3.3c0.5-1,1.1-1.8,2-2.5c0.9-0.7,1.9-1.3,3-1.7c1.2-0.4,2.5-0.6,3.8-0.6
		c2,0,3.8,0.4,5.3,1.2c1.6,0.8,2.8,1.7,3.8,2.8l-1.3,1.5c-1-1-2.1-1.8-3.4-2.4c-1.3-0.6-2.8-0.9-4.4-0.9c-2.2,0-4,0.5-5.3,1.6
		c-1.3,1.1-2,2.5-2,4.3c0,1,0.2,1.8,0.5,2.4c0.4,0.7,0.8,1.2,1.4,1.7c0.6,0.5,1.2,0.9,1.9,1.2s1.3,0.7,1.9,0.9l5,2.2
		c0.9,0.4,1.8,0.9,2.7,1.4c0.8,0.5,1.6,1.1,2.2,1.8c0.6,0.7,1.1,1.5,1.5,2.4c0.4,0.9,0.6,2,0.6,3.3c0,1.3-0.2,2.4-0.8,3.5
		c-0.5,1.1-1.2,2-2.1,2.8s-2,1.4-3.3,1.8C336.8,166.7,335.3,166.9,333.7,166.9z"/>
	<path class="st1" d="M361.2,166.3v-32.9h9.5c1.6,0,3.1,0.2,4.5,0.5c1.3,0.3,2.5,0.8,3.4,1.5c0.9,0.7,1.7,1.6,2.2,2.7
		c0.5,1.1,0.8,2.4,0.8,4c0,2.6-0.8,4.7-2.3,6.2c-1.5,1.5-3.6,2.4-6.2,2.8l9.1,15.3h-2.7l-8.9-15.1h-7v15.1H361.2z M363.5,149.3h6.5
		c2.9,0,5.2-0.6,6.7-1.8c1.5-1.2,2.3-3,2.3-5.4c0-2.5-0.8-4.2-2.3-5.2c-1.6-1-3.8-1.5-6.7-1.5h-6.5V149.3z"/>
	<path class="st1" d="M399.8,166.9c-2,0-3.8-0.4-5.5-1.2s-3.1-2-4.3-3.5s-2.1-3.3-2.8-5.4c-0.7-2.1-1-4.5-1-7.1s0.3-4.9,1-7
		c0.7-2.1,1.6-3.9,2.8-5.4c1.2-1.5,2.6-2.6,4.3-3.4c1.7-0.8,3.5-1.2,5.5-1.2c2,0,3.8,0.4,5.5,1.2c1.7,0.8,3.1,1.9,4.3,3.4
		c1.2,1.5,2.1,3.3,2.8,5.4c0.7,2.1,1,4.4,1,7s-0.3,5-1,7.1c-0.7,2.1-1.6,3.9-2.8,5.4c-1.2,1.5-2.6,2.7-4.3,3.5
		S401.8,166.9,399.8,166.9z M399.8,164.8c1.7,0,3.2-0.4,4.5-1.1s2.5-1.7,3.5-3.1c1-1.3,1.7-2.9,2.3-4.8c0.5-1.8,0.8-3.9,0.8-6.2
		c0-2.3-0.3-4.3-0.8-6.1c-0.5-1.8-1.3-3.4-2.3-4.7c-1-1.3-2.2-2.3-3.5-3c-1.4-0.7-2.9-1.1-4.5-1.1s-3.2,0.4-4.6,1.1
		c-1.4,0.7-2.6,1.7-3.5,3c-1,1.3-1.7,2.8-2.2,4.7c-0.5,1.8-0.8,3.9-0.8,6.1c0,2.3,0.3,4.4,0.8,6.2c0.5,1.9,1.3,3.4,2.2,4.8
		c1,1.3,2.1,2.3,3.5,3.1S398.1,164.8,399.8,164.8z"/>
	<path class="st1" d="M432.4,166.9c-2,0-3.8-0.4-5.5-1.2s-3.1-2-4.3-3.5s-2.1-3.3-2.8-5.4c-0.7-2.1-1-4.5-1-7.1s0.3-4.9,1-7
		c0.7-2.1,1.6-3.9,2.8-5.4c1.2-1.5,2.6-2.6,4.3-3.4c1.7-0.8,3.5-1.2,5.5-1.2c2,0,3.8,0.4,5.5,1.2c1.7,0.8,3.1,1.9,4.3,3.4
		c1.2,1.5,2.1,3.3,2.8,5.4c0.7,2.1,1,4.4,1,7s-0.3,5-1,7.1c-0.7,2.1-1.6,3.9-2.8,5.4c-1.2,1.5-2.6,2.7-4.3,3.5
		S434.4,166.9,432.4,166.9z M432.4,164.8c1.7,0,3.2-0.4,4.5-1.1s2.5-1.7,3.5-3.1c1-1.3,1.7-2.9,2.3-4.8c0.5-1.8,0.8-3.9,0.8-6.2
		c0-2.3-0.3-4.3-0.8-6.1c-0.5-1.8-1.3-3.4-2.3-4.7c-1-1.3-2.2-2.3-3.5-3c-1.4-0.7-2.9-1.1-4.5-1.1s-3.2,0.4-4.6,1.1
		c-1.4,0.7-2.6,1.7-3.5,3c-1,1.3-1.7,2.8-2.2,4.7c-0.5,1.8-0.8,3.9-0.8,6.1c0,2.3,0.3,4.4,0.8,6.2c0.5,1.9,1.3,3.4,2.2,4.8
		c1,1.3,2.1,2.3,3.5,3.1S430.7,164.8,432.4,164.8z"/>
	<path class="st1" d="M453.6,166.3v-32.9h3.2l6.9,19.4c0.4,1.2,0.9,2.4,1.3,3.6c0.4,1.2,0.9,2.4,1.3,3.7h0.2
		c0.4-1.2,0.9-2.5,1.2-3.7c0.4-1.2,0.8-2.4,1.2-3.6l6.9-19.4h3.3v32.9h-2.2v-21.6c0-1.4,0-2.8,0.1-4.4c0.1-1.6,0.1-3.1,0.2-4.5H477
		l-2.5,7.3l-7.1,19.6h-2l-7.2-19.6l-2.6-7.3h-0.2c0.1,1.4,0.1,2.9,0.2,4.5c0.1,1.6,0.1,3.1,0.1,4.4v21.6H453.6z"/>
</g>
</svg>
