<?xml version="1.0" encoding="utf-8"?>
<!-- Generator: Adobe Illustrator 19.0.0, SVG Export Plug-In . SVG Version: 6.00 Build 0)  -->
<svg version="1.1" id="Layer_1" xmlns="http://www.w3.org/2000/svg" xmlns:xlink="http://www.w3.org/1999/xlink" x="0px" y="0px"
	 viewBox="0 0 493.3 177.5" style="enable-background:new 0 0 493.3 177.5;" xml:space="preserve">
<style type="text/css">
	.st0{fill:#CCB66D;}
	.st1{fill:#F8F7F7;}
</style>
<g>
	<g>
		<path class="st0" d="M153.3,119v-2.8h3.7v-5.3h18.2v6.2h8.7c0,0-0.7-19.5,0.5-25.2c1.2-5.7,6-25.8,14.2-26.7
			c8.2-0.8,12.5,27.2,12.5,27.2l0.2,5.5h2.2v-4.2l2.2-5l1.3,5.3l0.1,22l10.5,0.2l0.2-9.1c0,0,3.8-5,9.8-1V91.3l5-1.5
			c0,0-0.5-21.1,12-23.2c1-0.2,3.2-16.2,3.2-16.2l1.8-9.2l1.8,9.5l2.9,15.8c12.1,1.6,11.4,23.5,11.4,23.5l4.1,1l0.1,19.2l4.7,0
			l0-4.2h4l0.1,4.1h13l0,3.1l3.2,0.1v1.1l-0.2,4.3h4l-0.1-2.6h3v-2.1l2.7-0.2l0-1.1h24.4v-4.7h5.5v10.2h3.5v-5l16.3-1.8v5.2h56.5
			v2.2h8.2v-18.7l2.8-2l1.1-8.3l1.1,8.3l2.4,2v9.1l1.9,0.1v-5.3h16.2v3h10.8V94.6h10.7v23.8h17.5v59H0l0-59h23.7V66.1l2.3-2.3v-6
			l2.5-2.5l4.2-4.2v-16c0,0,6.6-16.1,7-27.8H41c0,0,1,8.1,1.9,11.6c0.8,3.1,3.9,14.2,4.6,16.6l0.2,15.3l6.5,7.2l0.2,5.4l1.9,2.7
			l0,52.3H62l2,0l0-0.6V111l7.5,0l0,7.3h1.2v-5.8h12.5v6l2.8,0"/>
		<polyline class="st0" points="110.9,119.8 120.1,119.8 120.1,110.2 131.6,110.2 131.6,119.3 144.1,119.3 144.1,111.5 147.9,111.5 
			147.9,120.2 158.2,120.2 		"/>
		<line class="st0" x1="81.9" y1="119.2" x2="98.4" y2="119.2"/>
		<circle class="st0" cx="308.7" cy="63.4" r="4.1"/>
		<circle class="st0" cx="313.4" cy="49.2" r="4.1"/>
		<circle class="st0" cx="321.2" cy="35.9" r="4.1"/>
		<circle class="st0" cx="331.2" cy="25.1" r="4.1"/>
		<circle class="st0" cx="343.2" cy="16.1" r="4.1"/>
		<circle class="st0" cx="356.7" cy="8.9" r="4.1"/>
		<circle class="st0" cx="370.8" cy="5.2" r="4.1"/>
		<circle class="st0" cx="415.4" cy="10.4" r="4.1"/>
		<circle class="st0" cx="428.4" cy="18.1" r="4.1"/>
		<circle class="st0" cx="439.7" cy="27.6" r="4.1"/>
		<circle class="st0" cx="306.9" cy="77.9" r="4.1"/>
		<circle class="st0" cx="308.7" cy="93.4" r="4.1"/>
		<circle class="st0" cx="313.6" cy="107.5" r="4.1"/>
		<circle class="st0" cx="449.4" cy="39.9" r="4.1"/>
		<circle class="st0" cx="455.9" cy="53.6" r="4.1"/>
		<circle class="st0" cx="459.6" cy="68.5" r="4.1"/>
		<circle class="st0" cx="460.6" cy="83.5" r="4.1"/>
		<path class="st0" d="M383.9,7.9c-40.3,0-73,31.5-73,70.3c0,38.8,32.7,70.3,73,70.3c40.3,0,73-31.5,73-70.3
			C456.9,39.4,424.2,7.9,383.9,7.9z M383.9,140.1c-35.5,0-64.3-27.7-64.3-61.9c0-34.2,28.8-61.9,64.3-61.9
			c35.5,0,64.3,27.7,64.3,61.9C448.2,112.4,419.4,140.1,383.9,140.1z"/>
		<circle class="st0" cx="385.9" cy="4.1" r="4.1"/>
		<circle class="st0" cx="401.4" cy="6.1" r="4.1"/>
		<circle class="st0" cx="457.8" cy="98" r="4.1"/>
		<polygon class="st0" points="378.3,121.5 381.1,82.9 385.2,83.6 382.3,121.1 		"/>
		<circle class="st0" cx="384.2" cy="79.2" r="6"/>
		<polygon class="st0" points="394.3,120 383.8,84.4 387.9,83.5 398,118.2 		"/>
	</g>
</g>
<g>
	<path class="st1" d="M10.5,166v-32.8h4.1v29.2H29v3.5H10.5z"/>
	<path class="st1" d="M45.6,166.6c-2.1,0-4-0.4-5.7-1.2c-1.7-0.8-3.2-1.9-4.4-3.4c-1.2-1.5-2.2-3.3-2.9-5.4c-0.7-2.1-1-4.5-1-7.1
		c0-2.6,0.3-5,1-7.1c0.7-2.1,1.6-3.9,2.9-5.3c1.2-1.5,2.7-2.6,4.4-3.3c1.7-0.8,3.6-1.1,5.7-1.1c2.1,0,4,0.4,5.7,1.2
		c1.7,0.8,3.2,1.9,4.5,3.4s2.2,3.2,2.9,5.3c0.7,2.1,1,4.4,1,7c0,2.6-0.3,5-1,7.1c-0.7,2.1-1.6,3.9-2.9,5.4c-1.2,1.5-2.7,2.6-4.5,3.4
		C49.6,166.2,47.7,166.6,45.6,166.6z M45.6,162.9c1.5,0,2.8-0.3,4-1c1.2-0.6,2.2-1.5,3-2.7s1.5-2.6,2-4.2c0.5-1.7,0.7-3.5,0.7-5.6
		c0-2-0.2-3.9-0.7-5.5c-0.5-1.6-1.1-3-2-4.2c-0.9-1.1-1.9-2-3-2.6c-1.2-0.6-2.5-0.9-4-0.9c-1.5,0-2.8,0.3-4,0.9
		c-1.2,0.6-2.2,1.5-3,2.6c-0.9,1.1-1.5,2.5-2,4.2c-0.5,1.6-0.7,3.5-0.7,5.5c0,2.1,0.2,3.9,0.7,5.6c0.5,1.6,1.1,3.1,2,4.2
		c0.8,1.2,1.9,2.1,3,2.7C42.8,162.6,44.1,162.9,45.6,162.9z"/>
	<path class="st1" d="M66.7,166v-32.8H71l11.9,20.6l3.6,6.8h0.2c-0.1-1.7-0.2-3.4-0.3-5.2c-0.1-1.8-0.2-3.5-0.2-5.3v-16.9h4V166
		h-4.3l-11.9-20.6l-3.5-6.8h-0.2c0.1,1.7,0.3,3.4,0.4,5.1c0.1,1.7,0.2,3.4,0.2,5.2V166H66.7z"/>
	<path class="st1" d="M99.1,166v-32.8h8.2c5.1,0,8.9,1.4,11.5,4.2c2.6,2.8,4,6.8,4,12.1c0,2.6-0.3,4.9-1,7c-0.7,2-1.7,3.8-3,5.2
		c-1.3,1.4-2.9,2.5-4.8,3.2c-1.9,0.8-4.1,1.1-6.6,1.1H99.1z M103.2,162.6h3.8c3.8,0,6.7-1.1,8.6-3.4c1.9-2.3,2.9-5.5,2.9-9.7
		c0-4.2-1-7.4-2.9-9.6c-1.9-2.2-4.8-3.3-8.6-3.3h-3.8V162.6z"/>
	<path class="st1" d="M141.9,166.6c-2.1,0-4-0.4-5.7-1.2c-1.7-0.8-3.2-1.9-4.4-3.4c-1.2-1.5-2.2-3.3-2.9-5.4c-0.7-2.1-1-4.5-1-7.1
		c0-2.6,0.3-5,1-7.1c0.7-2.1,1.6-3.9,2.9-5.3c1.2-1.5,2.7-2.6,4.4-3.3c1.7-0.8,3.6-1.1,5.7-1.1c2.1,0,4,0.4,5.7,1.2
		c1.7,0.8,3.2,1.9,4.5,3.4s2.2,3.2,2.9,5.3c0.7,2.1,1,4.4,1,7c0,2.6-0.3,5-1,7.1c-0.7,2.1-1.6,3.9-2.9,5.4c-1.2,1.5-2.7,2.6-4.5,3.4
		C145.9,166.2,144,166.6,141.9,166.6z M141.9,162.9c1.5,0,2.8-0.3,4-1c1.2-0.6,2.2-1.5,3-2.7s1.5-2.6,2-4.2c0.5-1.7,0.7-3.5,0.7-5.6
		c0-2-0.2-3.9-0.7-5.5c-0.5-1.6-1.1-3-2-4.2c-0.9-1.1-1.9-2-3-2.6c-1.2-0.6-2.5-0.9-4-0.9c-1.5,0-2.8,0.3-4,0.9
		c-1.2,0.6-2.2,1.5-3,2.6c-0.9,1.1-1.5,2.5-2,4.2c-0.5,1.6-0.7,3.5-0.7,5.5c0,2.1,0.2,3.9,0.7,5.6c0.5,1.6,1.1,3.1,2,4.2
		c0.8,1.2,1.9,2.1,3,2.7C139.1,162.6,140.4,162.9,141.9,162.9z"/>
	<path class="st1" d="M163,166v-32.8h4.3l11.9,20.6l3.6,6.8h0.2c-0.1-1.7-0.2-3.4-0.3-5.2c-0.1-1.8-0.2-3.5-0.2-5.3v-16.9h4V166
		h-4.3l-11.9-20.6l-3.5-6.8h-0.2c0.1,1.7,0.3,3.4,0.4,5.1c0.1,1.7,0.2,3.4,0.2,5.2V166H163z"/>
	<path class="st1" d="M218.3,166.6c-2.2,0-4.2-0.4-6-1.1c-1.8-0.8-3.4-1.9-4.7-3.3s-2.3-3.2-3-5.3c-0.7-2.1-1.1-4.5-1.1-7.2
		c0-2.6,0.4-5,1.1-7.1s1.8-3.9,3.1-5.4c1.3-1.5,2.9-2.6,4.8-3.4c1.9-0.8,3.9-1.2,6-1.2c1.1,0,2.2,0.1,3.1,0.4c1,0.2,1.8,0.5,2.6,0.9
		c0.8,0.4,1.5,0.8,2.1,1.3c0.6,0.5,1.2,1,1.6,1.5l-2.3,2.7c-0.8-0.9-1.8-1.6-2.9-2.2s-2.5-0.9-4.1-0.9c-1.7,0-3.2,0.3-4.5,0.9
		c-1.3,0.6-2.5,1.5-3.4,2.7c-0.9,1.1-1.7,2.5-2.2,4.2c-0.5,1.6-0.8,3.5-0.8,5.5c0,2.1,0.2,3.9,0.7,5.6c0.5,1.6,1.2,3.1,2.1,4.2
		c0.9,1.2,2,2.1,3.4,2.7c1.4,0.6,2.9,1,4.7,1c1.2,0,2.3-0.2,3.3-0.5c1-0.3,1.9-0.8,2.6-1.4v-8.5h-7V149h10.8v13.8
		c-1.1,1.1-2.5,2-4.2,2.7C222.4,166.2,220.5,166.6,218.3,166.6z"/>
	<path class="st1" d="M231.7,166l11.1-32.8h4.7l11.1,32.8h-4.4l-3.1-10h-12l-3.1,10H231.7z M241.7,147.6l-1.5,5h9.9l-1.6-5
		c-0.6-1.8-1.2-3.7-1.7-5.5c-0.5-1.8-1.1-3.7-1.6-5.6h-0.2c-0.5,1.9-1,3.8-1.5,5.6C242.8,144,242.3,145.8,241.7,147.6z"/>
	<path class="st1" d="M263.2,166v-32.8h5l6.3,17.5c0.4,1.1,0.8,2.3,1.2,3.4c0.4,1.2,0.8,2.3,1.2,3.4h0.2c0.4-1.1,0.8-2.3,1.1-3.4
		c0.4-1.1,0.7-2.3,1.1-3.4l6.2-17.5h5V166h-3.9v-18c0-1.5,0.1-3.1,0.2-4.9c0.1-1.8,0.2-3.4,0.3-4.9H287l-2.6,7.5l-6.2,17h-2.8
		l-6.2-17l-2.6-7.5h-0.2c0.1,1.5,0.2,3.1,0.3,4.9c0.1,1.8,0.2,3.4,0.2,4.9v18H263.2z"/>
	<path class="st1" d="M299.6,166v-32.8h18.9v3.5h-14.8V147h12.5v3.5h-12.5v11.9H319v3.5H299.6z"/>
	<path class="st1" d="M335,166.6c-2.3,0-4.4-0.4-6.4-1.3c-2-0.9-3.7-2-5.1-3.5l2.5-2.9c1.2,1.2,2.5,2.2,4.1,3s3.2,1.1,4.9,1.1
		c2.2,0,3.9-0.5,5-1.5c1.2-1,1.8-2.3,1.8-3.9c0-0.8-0.1-1.5-0.4-2.1c-0.3-0.6-0.7-1.1-1.2-1.5c-0.5-0.4-1.1-0.8-1.7-1.1
		c-0.7-0.3-1.4-0.7-2.2-1.1l-4.7-2c-0.8-0.3-1.5-0.7-2.4-1.2c-0.8-0.5-1.5-1-2.1-1.7c-0.6-0.7-1.1-1.5-1.5-2.4
		c-0.4-0.9-0.6-2-0.6-3.2c0-1.2,0.3-2.4,0.8-3.4c0.5-1.1,1.2-2,2.1-2.8c0.9-0.8,2-1.4,3.2-1.8c1.2-0.4,2.6-0.6,4.1-0.6
		c2,0,3.8,0.4,5.4,1.1s3.1,1.7,4.2,2.9l-2.2,2.7c-1-1-2.1-1.7-3.3-2.3c-1.2-0.6-2.6-0.8-4.1-0.8c-1.8,0-3.3,0.4-4.4,1.3
		c-1.1,0.9-1.7,2-1.7,3.5c0,0.8,0.2,1.5,0.5,2c0.3,0.5,0.7,1,1.3,1.4c0.5,0.4,1.1,0.8,1.8,1.1c0.6,0.3,1.3,0.6,2,0.9l4.7,2
		c0.9,0.4,1.8,0.9,2.7,1.4c0.8,0.5,1.5,1.1,2.1,1.8c0.6,0.7,1.1,1.5,1.4,2.4c0.3,0.9,0.5,2,0.5,3.2c0,1.3-0.3,2.5-0.8,3.7
		c-0.5,1.1-1.3,2.1-2.2,3s-2.1,1.5-3.5,2C338.3,166.3,336.7,166.6,335,166.6z"/>
	<path class="st1" d="M362.6,166v-32.8h10.2c1.7,0,3.2,0.2,4.6,0.5c1.4,0.3,2.6,0.8,3.7,1.6c1,0.7,1.8,1.7,2.4,2.9
		c0.6,1.2,0.8,2.6,0.8,4.3c0,2.6-0.7,4.6-2,6.1c-1.3,1.5-3.1,2.6-5.4,3.2l8.4,14.3h-4.7l-7.9-13.9h-5.9V166H362.6z M366.8,148.7h5.5
		c2.6,0,4.5-0.5,5.9-1.6c1.4-1,2-2.6,2-4.8c0-2.2-0.7-3.7-2-4.5c-1.4-0.9-3.3-1.3-5.9-1.3h-5.5V148.7z"/>
	<path class="st1" d="M403.2,166.6c-2.1,0-4-0.4-5.7-1.2c-1.7-0.8-3.2-1.9-4.4-3.4c-1.2-1.5-2.2-3.3-2.9-5.4c-0.7-2.1-1-4.5-1-7.1
		c0-2.6,0.3-5,1-7.1c0.7-2.1,1.6-3.9,2.9-5.3c1.2-1.5,2.7-2.6,4.4-3.3c1.7-0.8,3.6-1.1,5.7-1.1s4,0.4,5.7,1.2
		c1.7,0.8,3.2,1.9,4.4,3.4s2.2,3.2,2.9,5.3c0.7,2.1,1,4.4,1,7c0,2.6-0.3,5-1,7.1c-0.7,2.1-1.7,3.9-2.9,5.4c-1.2,1.5-2.7,2.6-4.4,3.4
		C407.1,166.2,405.2,166.6,403.2,166.6z M403.2,162.9c1.5,0,2.8-0.3,4-1c1.2-0.6,2.2-1.5,3-2.7s1.5-2.6,2-4.2
		c0.5-1.7,0.7-3.5,0.7-5.6c0-2-0.2-3.9-0.7-5.5c-0.5-1.6-1.1-3-2-4.2c-0.8-1.1-1.9-2-3-2.6c-1.2-0.6-2.5-0.9-4-0.9s-2.8,0.3-4,0.9
		c-1.2,0.6-2.2,1.5-3,2.6c-0.9,1.1-1.5,2.5-2,4.2c-0.5,1.6-0.7,3.5-0.7,5.5c0,2.1,0.2,3.9,0.7,5.6c0.5,1.6,1.1,3.1,2,4.2
		c0.8,1.2,1.9,2.1,3,2.7C400.4,162.6,401.7,162.9,403.2,162.9z"/>
	<path class="st1" d="M436.4,166.6c-2.1,0-4-0.4-5.7-1.2c-1.7-0.8-3.2-1.9-4.4-3.4c-1.2-1.5-2.2-3.3-2.9-5.4c-0.7-2.1-1-4.5-1-7.1
		c0-2.6,0.3-5,1-7.1c0.7-2.1,1.6-3.9,2.9-5.3c1.2-1.5,2.7-2.6,4.4-3.3c1.7-0.8,3.6-1.1,5.7-1.1s4,0.4,5.7,1.2
		c1.7,0.8,3.2,1.9,4.4,3.4s2.2,3.2,2.9,5.3c0.7,2.1,1,4.4,1,7c0,2.6-0.3,5-1,7.1c-0.7,2.1-1.7,3.9-2.9,5.4c-1.2,1.5-2.7,2.6-4.4,3.4
		C440.3,166.2,438.4,166.6,436.4,166.6z M436.4,162.9c1.5,0,2.8-0.3,4-1c1.2-0.6,2.2-1.5,3-2.7s1.5-2.6,2-4.2
		c0.5-1.7,0.7-3.5,0.7-5.6c0-2-0.2-3.9-0.7-5.5c-0.5-1.6-1.1-3-2-4.2c-0.8-1.1-1.9-2-3-2.6c-1.2-0.6-2.5-0.9-4-0.9s-2.8,0.3-4,0.9
		c-1.2,0.6-2.2,1.5-3,2.6c-0.9,1.1-1.5,2.5-2,4.2c-0.5,1.6-0.7,3.5-0.7,5.5c0,2.1,0.2,3.9,0.7,5.6c0.5,1.6,1.1,3.1,2,4.2
		c0.8,1.2,1.9,2.1,3,2.7C433.6,162.6,434.9,162.9,436.4,162.9z"/>
	<path class="st1" d="M457.5,166v-32.8h5l6.3,17.5c0.4,1.1,0.8,2.3,1.2,3.4c0.4,1.2,0.8,2.3,1.2,3.4h0.2c0.4-1.1,0.8-2.3,1.1-3.4
		c0.4-1.1,0.7-2.3,1.1-3.4l6.2-17.5h5V166h-3.9v-18c0-1.5,0.1-3.1,0.2-4.9c0.1-1.8,0.2-3.4,0.3-4.9h-0.2l-2.6,7.5l-6.2,17h-2.8
		l-6.2-17l-2.6-7.5h-0.2c0.1,1.5,0.2,3.1,0.3,4.9c0.1,1.8,0.2,3.4,0.2,4.9v18H457.5z"/>
</g>
</svg>
