<?xml version="1.0" encoding="utf-8"?>
<!-- Generator: Adobe Illustrator 19.0.0, SVG Export Plug-In . SVG Version: 6.00 Build 0)  -->
<svg version="1.1" id="Layer_1" xmlns="http://www.w3.org/2000/svg" xmlns:xlink="http://www.w3.org/1999/xlink" x="0px" y="0px"
	 viewBox="0 0 493.3 177.5" style="enable-background:new 0 0 493.3 177.5;" xml:space="preserve">
<style type="text/css">
	.st0{fill:#CCB66D;}
	.st1{fill:none;}
	.st2{fill:#F8F7F7;}
	.st3{font-family:'SourceSansPro-Light';}
	.st4{font-size:50px;}
</style>
<g>
	<g>
		<path class="st0" d="M153.3,119v-2.8h3.7v-5.3h18.2v6.2h8.7c0,0-0.7-19.5,0.5-25.2c1.2-5.7,6-25.8,14.2-26.7
			c8.2-0.8,12.5,27.2,12.5,27.2l0.2,5.5h2.2v-4.2l2.2-5l1.3,5.3l0.1,22l10.5,0.2l0.2-9.1c0,0,3.8-5,9.8-1V91.3l5-1.5
			c0,0-0.5-21.1,12-23.2c1-0.2,3.2-16.2,3.2-16.2l1.8-9.2l1.8,9.5l2.9,15.8c12.1,1.6,11.4,23.5,11.4,23.5l4.1,1l0.1,19.2l4.7,0
			l0-4.2h4l0.1,4.1h13l0,3.1l3.2,0.1v1.1l-0.2,4.3h4l-0.1-2.6h3v-2.1l2.7-0.2l0-1.1h24.4v-4.7h5.5v10.2h3.5v-5l16.3-1.8v5.2h56.5
			v2.2h8.2v-18.7l2.8-2l1.1-8.3l1.1,8.3l2.4,2v9.1l1.9,0.1v-5.3h16.2v3h10.8V94.6h10.7v23.8h17.5v59H0l0-59h23.7V66.1l2.3-2.3v-6
			l2.5-2.5l4.2-4.2v-16c0,0,6.6-16.1,7-27.8H41c0,0,1,8.1,1.9,11.6c0.8,3.1,3.9,14.2,4.6,16.6l0.2,15.3l6.5,7.2l0.2,5.4l1.9,2.7
			l0,52.3H62l2,0l0-0.6V111l7.5,0l0,7.3h1.2v-5.8h12.5v6l2.8,0"/>
		<polyline class="st0" points="110.9,119.8 120.1,119.8 120.1,110.2 131.6,110.2 131.6,119.3 144.1,119.3 144.1,111.5 147.9,111.5 
			147.9,120.2 158.2,120.2 		"/>
		<line class="st0" x1="81.9" y1="119.2" x2="98.4" y2="119.2"/>
		<circle class="st0" cx="308.7" cy="63.4" r="4.1"/>
		<circle class="st0" cx="313.4" cy="49.2" r="4.1"/>
		<circle class="st0" cx="321.2" cy="35.9" r="4.1"/>
		<circle class="st0" cx="331.2" cy="25.1" r="4.1"/>
		<circle class="st0" cx="343.2" cy="16.1" r="4.1"/>
		<circle class="st0" cx="356.7" cy="8.9" r="4.1"/>
		<circle class="st0" cx="370.8" cy="5.2" r="4.1"/>
		<circle class="st0" cx="415.4" cy="10.4" r="4.1"/>
		<circle class="st0" cx="428.4" cy="18.1" r="4.1"/>
		<circle class="st0" cx="439.7" cy="27.6" r="4.1"/>
		<circle class="st0" cx="306.9" cy="77.9" r="4.1"/>
		<circle class="st0" cx="308.7" cy="93.4" r="4.1"/>
		<circle class="st0" cx="313.6" cy="107.5" r="4.1"/>
		<circle class="st0" cx="449.4" cy="39.9" r="4.1"/>
		<circle class="st0" cx="455.9" cy="53.6" r="4.1"/>
		<circle class="st0" cx="459.6" cy="68.5" r="4.1"/>
		<circle class="st0" cx="460.6" cy="83.5" r="4.1"/>
		<path class="st0" d="M383.9,7.9c-40.3,0-73,31.5-73,70.3c0,38.8,32.7,70.3,73,70.3c40.3,0,73-31.5,73-70.3
			C456.9,39.4,424.2,7.9,383.9,7.9z M383.9,140.1c-35.5,0-64.3-27.7-64.3-61.9c0-34.2,28.8-61.9,64.3-61.9
			c35.5,0,64.3,27.7,64.3,61.9C448.2,112.4,419.4,140.1,383.9,140.1z"/>
		<circle class="st0" cx="385.9" cy="4.1" r="4.1"/>
		<circle class="st0" cx="401.4" cy="6.1" r="4.1"/>
		<circle class="st0" cx="457.8" cy="98" r="4.1"/>
		<polygon class="st0" points="378.3,121.5 381.1,82.9 385.2,83.6 382.3,121.1 		"/>
		<circle class="st0" cx="384.2" cy="79.2" r="6"/>
		<polygon class="st0" points="394.3,120 383.8,84.4 387.9,83.5 398,118.2 		"/>
	</g>
</g>
<rect x="1" y="130.4" class="st1" width="491.2" height="42"/>
<text transform="matrix(1 0 0 1 9.7324 166.3403)" class="st2 st3 st4">LONDON GAMES ROOM</text>
</svg>
