<?xml version="1.0" encoding="utf-8"?>
<!-- Generator: Adobe Illustrator 19.0.0, SVG Export Plug-In . SVG Version: 6.00 Build 0)  -->
<svg version="1.1" id="Layer_1" xmlns="http://www.w3.org/2000/svg" xmlns:xlink="http://www.w3.org/1999/xlink" x="0px" y="0px"
	 viewBox="-50 208.8 493.3 177.5" style="enable-background:new -50 208.8 493.3 177.5;" xml:space="preserve">
<style type="text/css">
	.st0{fill:#CBB66D;}
	.st1{fill:#F7F7F6;}
</style>
<g>
	<g>
		<path class="st0" d="M104.7,328.4v-2.8h3.7v-5.3h18.2v6.2h8.7c0,0-0.7-19.5,0.5-25.2c1.2-5.7,6-25.8,14.2-26.7
			c8.2-0.8,12.5,27.2,12.5,27.2l0.2,5.5h2.2V303l2.2-5l1.3,5.3l0.1,22l10.5,0.2l0.2-9.1c0,0,3.8-5,9.8-1v-14.8l5-1.5
			c0,0-0.5-21.1,12-23.2c1-0.2,3.2-16.2,3.2-16.2l1.8-9.2l1.8,9.5l2.9,15.8c12.1,1.6,11.4,23.5,11.4,23.5l4.1,1l0.1,19.2l4.7,0
			l0-4.2h4l0.1,4.1h13l0,3.1l3.3,0.1v1.1l-0.2,4.3h4l-0.1-2.6h3v-2.1l2.7-0.2l0-1.1h24.4v-4.7h5.5v10.2h3.5v-5l16.3-1.8v5.2H372v2.2
			h8.2v-18.7l2.8-2l1.1-8.3l1.1,8.3l2.4,2v9.1l1.9,0.1v-5.3h16.2v3h10.8V304h10.7v23.8h17.5v59H-48.6l0-59H-25v-52.3l2.3-2.3v-6
			l2.5-2.5l4.2-4.2v-16c0,0,6.6-16.1,7-27.8h1.3c0,0,1,8.1,1.9,11.6c0.8,3.1,3.9,14.2,4.6,16.6l0.2,15.3l6.5,7.2l0.2,5.4l1.9,2.7
			l0,52.3h5.7l2,0l0-0.6v-6.8l7.5,0l0,7.3H24v-5.8h12.5v6l2.8,0"/>
		<polyline class="st0" points="62.2,329.2 71.4,329.2 71.4,319.6 82.9,319.6 82.9,328.7 95.4,328.7 95.4,320.9 99.2,320.9 
			99.2,329.6 109.6,329.6 		"/>
		<line class="st0" x1="33.2" y1="328.6" x2="49.7" y2="328.6"/>
		<circle class="st0" cx="260" cy="272.8" r="4.1"/>
		<circle class="st0" cx="264.8" cy="258.6" r="4.1"/>
		<circle class="st0" cx="272.5" cy="245.3" r="4.1"/>
		<circle class="st0" cx="282.5" cy="234.5" r="4.1"/>
		<circle class="st0" cx="294.5" cy="225.5" r="4.1"/>
		<circle class="st0" cx="308" cy="218.3" r="4.1"/>
		<circle class="st0" cx="322.2" cy="214.6" r="4.1"/>
		<circle class="st0" cx="366.8" cy="219.8" r="4.1"/>
		<circle class="st0" cx="379.8" cy="227.5" r="4.1"/>
		<circle class="st0" cx="391" cy="237" r="4.1"/>
		<circle class="st0" cx="258.3" cy="287.3" r="4.1"/>
		<circle class="st0" cx="260" cy="302.8" r="4.1"/>
		<circle class="st0" cx="264.9" cy="316.9" r="4.1"/>
		<circle class="st0" cx="400.8" cy="249.3" r="4.1"/>
		<circle class="st0" cx="407.3" cy="263" r="4.1"/>
		<circle class="st0" cx="410.9" cy="277.9" r="4.1"/>
		<circle class="st0" cx="411.9" cy="292.9" r="4.1"/>
		<path class="st0" d="M335.2,217.3c-40.3,0-73,31.5-73,70.3c0,38.8,32.7,70.3,73,70.3c40.3,0,73-31.5,73-70.3
			C408.2,248.8,375.5,217.3,335.2,217.3z M335.2,349.5c-35.5,0-64.3-27.7-64.3-61.9c0-34.2,28.8-61.9,64.3-61.9
			c35.5,0,64.3,27.7,64.3,61.9C399.5,321.8,370.7,349.5,335.2,349.5z"/>
		<circle class="st0" cx="337.3" cy="213.5" r="4.1"/>
		<circle class="st0" cx="352.8" cy="215.5" r="4.1"/>
		<circle class="st0" cx="409.2" cy="307.4" r="4.1"/>
		<polygon class="st0" points="329.6,330.9 332.4,292.3 336.6,293 333.7,330.5 		"/>
		<circle class="st0" cx="335.6" cy="288.6" r="6"/>
		<polygon class="st0" points="345.6,329.4 335.1,293.8 339.3,292.9 349.3,327.6 		"/>
	</g>
</g>
<g>
	<path class="st1" d="M-32.5,375.7v-32.9h2.3v30.9H-15v2H-32.5z"/>
	<path class="st1" d="M1.3,376.3c-2,0-3.8-0.4-5.4-1.2c-1.7-0.8-3.1-2-4.3-3.5c-1.2-1.5-2.1-3.3-2.8-5.4c-0.7-2.1-1-4.5-1-7.1
		s0.3-4.9,1-7c0.7-2.1,1.6-3.9,2.8-5.4c1.2-1.5,2.6-2.6,4.3-3.4c1.7-0.8,3.5-1.2,5.4-1.2c2,0,3.8,0.4,5.5,1.2
		c1.7,0.8,3.1,1.9,4.3,3.4c1.2,1.5,2.1,3.3,2.8,5.4c0.7,2.1,1,4.4,1,7s-0.3,5-1,7.1c-0.7,2.1-1.6,3.9-2.8,5.4
		c-1.2,1.5-2.6,2.7-4.3,3.5C5.1,375.9,3.3,376.3,1.3,376.3z M1.3,374.2c1.7,0,3.2-0.4,4.6-1.1c1.4-0.7,2.5-1.7,3.5-3.1
		c1-1.3,1.7-2.9,2.3-4.8c0.5-1.8,0.8-3.9,0.8-6.2c0-2.3-0.3-4.3-0.8-6.1c-0.5-1.8-1.3-3.4-2.3-4.7c-1-1.3-2.2-2.3-3.5-3
		c-1.4-0.7-2.9-1.1-4.6-1.1c-1.7,0-3.2,0.4-4.6,1.1c-1.4,0.7-2.6,1.7-3.5,3c-1,1.3-1.7,2.8-2.2,4.7c-0.5,1.8-0.8,3.9-0.8,6.1
		c0,2.3,0.3,4.4,0.8,6.2c0.5,1.9,1.3,3.4,2.2,4.8c1,1.3,2.1,2.3,3.5,3.1C-1.9,373.9-0.4,374.2,1.3,374.2z"/>
	<path class="st1" d="M22.5,375.7v-32.9h2.4L38.8,366l3.7,6.5h0.2c-0.1-1.6-0.1-3.2-0.2-4.8c-0.1-1.6-0.1-3.2-0.1-4.8v-20.2h2.2
		v32.9h-2.4l-13.9-23.2l-3.7-6.5h-0.2c0.1,1.6,0.1,3.2,0.2,4.7c0.1,1.5,0.1,3.1,0.1,4.7v20.4H22.5z"/>
	<path class="st1" d="M54.3,375.7v-32.9h7.6c2.5,0,4.7,0.4,6.6,1.2c1.9,0.8,3.4,1.9,4.7,3.3c1.2,1.4,2.2,3.1,2.8,5.1
		c0.6,2,0.9,4.2,0.9,6.8s-0.3,4.8-0.9,6.8c-0.6,2-1.5,3.8-2.8,5.2c-1.2,1.5-2.8,2.6-4.6,3.4c-1.9,0.8-4.1,1.2-6.6,1.2H54.3z
		 M56.6,373.8h5.1c2.2,0,4.2-0.4,5.8-1.1c1.6-0.7,2.9-1.7,4-3c1-1.3,1.8-2.8,2.3-4.6c0.5-1.8,0.8-3.8,0.8-5.9c0-2.1-0.2-4.1-0.8-5.9
		c-0.5-1.8-1.3-3.3-2.3-4.5c-1-1.3-2.4-2.2-4-3c-1.6-0.7-3.5-1-5.8-1h-5.1V373.8z"/>
	<path class="st1" d="M95.9,376.3c-2,0-3.8-0.4-5.4-1.2c-1.7-0.8-3.1-2-4.3-3.5c-1.2-1.5-2.1-3.3-2.8-5.4c-0.7-2.1-1-4.5-1-7.1
		s0.3-4.9,1-7c0.7-2.1,1.6-3.9,2.8-5.4c1.2-1.5,2.6-2.6,4.3-3.4c1.7-0.8,3.5-1.2,5.4-1.2c2,0,3.8,0.4,5.5,1.2
		c1.7,0.8,3.1,1.9,4.3,3.4c1.2,1.5,2.1,3.3,2.8,5.4c0.7,2.1,1,4.4,1,7s-0.3,5-1,7.1c-0.7,2.1-1.6,3.9-2.8,5.4
		c-1.2,1.5-2.6,2.7-4.3,3.5C99.7,375.9,97.9,376.3,95.9,376.3z M95.9,374.2c1.7,0,3.2-0.4,4.6-1.1c1.4-0.7,2.5-1.7,3.5-3.1
		c1-1.3,1.7-2.9,2.3-4.8c0.5-1.8,0.8-3.9,0.8-6.2c0-2.3-0.3-4.3-0.8-6.1c-0.5-1.8-1.3-3.4-2.3-4.7c-1-1.3-2.2-2.3-3.5-3
		c-1.4-0.7-2.9-1.1-4.6-1.1c-1.7,0-3.2,0.4-4.6,1.1c-1.4,0.7-2.6,1.7-3.5,3c-1,1.3-1.7,2.8-2.2,4.7c-0.5,1.8-0.8,3.9-0.8,6.1
		c0,2.3,0.3,4.4,0.8,6.2c0.5,1.9,1.3,3.4,2.2,4.8c1,1.3,2.1,2.3,3.5,3.1C92.7,373.9,94.2,374.2,95.9,374.2z"/>
	<path class="st1" d="M117.1,375.7v-32.9h2.4l13.9,23.3l3.7,6.5h0.2c-0.1-1.6-0.1-3.2-0.2-4.8c-0.1-1.6-0.1-3.2-0.1-4.8v-20.2h2.2
		v32.9h-2.4l-13.9-23.2l-3.7-6.5H119c0.1,1.6,0.1,3.2,0.2,4.7c0.1,1.5,0.1,3.1,0.1,4.7v20.4H117.1z"/>
	<path class="st1" d="M170.9,376.3c-2.1,0-4.1-0.4-5.8-1.2c-1.7-0.8-3.2-1.9-4.5-3.4c-1.2-1.5-2.2-3.3-2.9-5.4c-0.7-2.1-1-4.5-1-7.1
		c0-2.6,0.4-5,1-7.1c0.7-2.1,1.7-3.9,3-5.4c1.3-1.5,2.8-2.6,4.6-3.4c1.8-0.8,3.8-1.2,5.9-1.2c1.1,0,2.1,0.1,3,0.3
		c0.9,0.2,1.7,0.5,2.5,0.9c0.7,0.4,1.4,0.8,2,1.3c0.6,0.5,1.1,0.9,1.5,1.4l-1.3,1.6c-0.9-0.9-1.9-1.7-3.1-2.4c-1.2-0.7-2.7-1-4.5-1
		c-1.9,0-3.6,0.4-5.1,1.1c-1.5,0.7-2.8,1.7-3.8,3c-1,1.3-1.9,2.8-2.4,4.7c-0.6,1.8-0.9,3.9-0.9,6.2c0,2.3,0.3,4.4,0.8,6.2
		c0.5,1.8,1.3,3.4,2.3,4.7c1,1.3,2.3,2.3,3.8,3c1.5,0.7,3.2,1.1,5,1.1c1.5,0,2.9-0.2,4.2-0.6c1.3-0.4,2.4-1,3.2-1.9v-10.2h-7.9v-2
		h10.1v13.1c-1,1.1-2.4,2-4,2.7C175,376,173.1,376.3,170.9,376.3z"/>
	<path class="st1" d="M184.6,375.7l11.6-32.9h2.3l11.6,32.9h-2.4l-3.9-11.3h-13l-3.9,11.3H184.6z M193.6,356.3l-2.1,6.1h11.7
		l-2.1-6.1c-0.7-2-1.3-3.9-1.9-5.6c-0.6-1.8-1.2-3.7-1.8-5.8h-0.2c-0.6,2-1.1,3.9-1.8,5.8C195,352.5,194.3,354.4,193.6,356.3z"/>
	<path class="st1" d="M215.4,375.7v-32.9h3.2l6.9,19.4c0.4,1.2,0.9,2.4,1.3,3.6c0.4,1.2,0.9,2.4,1.3,3.7h0.2
		c0.4-1.2,0.9-2.5,1.2-3.7c0.4-1.2,0.8-2.4,1.2-3.6l6.9-19.4h3.3v32.9h-2.2v-21.6c0-1.4,0-2.8,0.1-4.4c0.1-1.6,0.1-3.1,0.2-4.5h-0.2
		l-2.6,7.3l-7.1,19.6h-2l-7.1-19.6l-2.6-7.3h-0.2c0.1,1.4,0.1,2.9,0.2,4.5c0.1,1.6,0.1,3.1,0.1,4.4v21.6H215.4z"/>
	<path class="st1" d="M250.7,375.7v-32.9h18v2H253v12.5h13.2v2H253v14.5h16.2v2H250.7z"/>
	<path class="st1" d="M285,376.3c-2.4,0-4.5-0.5-6.4-1.4s-3.4-2.1-4.8-3.6l1.5-1.6c1.2,1.4,2.6,2.4,4.3,3.2c1.7,0.8,3.4,1.2,5.3,1.2
		c2.5,0,4.5-0.6,6-1.8c1.5-1.2,2.2-2.8,2.2-4.8c0-1-0.2-1.9-0.5-2.6c-0.3-0.7-0.7-1.3-1.3-1.9c-0.5-0.5-1.2-1-1.9-1.3
		c-0.7-0.4-1.5-0.7-2.3-1.1l-5-2.2c-0.7-0.3-1.5-0.7-2.2-1.1c-0.8-0.4-1.5-1-2.2-1.6s-1.2-1.4-1.6-2.3c-0.4-0.9-0.7-1.9-0.7-3.2
		c0-1.2,0.2-2.3,0.7-3.3c0.5-1,1.1-1.8,2-2.5c0.9-0.7,1.9-1.3,3-1.7c1.2-0.4,2.5-0.6,3.8-0.6c2,0,3.8,0.4,5.3,1.2
		c1.6,0.8,2.8,1.7,3.8,2.8l-1.3,1.5c-1-1-2.1-1.8-3.4-2.4c-1.3-0.6-2.8-0.9-4.4-0.9c-2.2,0-4,0.5-5.3,1.6c-1.3,1.1-2,2.5-2,4.3
		c0,1,0.2,1.8,0.5,2.4c0.4,0.7,0.8,1.2,1.4,1.7c0.6,0.5,1.2,0.9,1.9,1.2s1.3,0.7,1.9,0.9l5,2.2c0.9,0.4,1.8,0.9,2.7,1.4
		c0.8,0.5,1.6,1.1,2.2,1.8c0.6,0.7,1.1,1.5,1.5,2.4c0.4,0.9,0.6,2,0.6,3.3c0,1.3-0.2,2.4-0.8,3.5c-0.5,1.1-1.2,2-2.1,2.8
		s-2,1.4-3.3,1.8C288.1,376.1,286.6,376.3,285,376.3z"/>
	<path class="st1" d="M312.5,375.7v-32.9h9.5c1.6,0,3.1,0.2,4.5,0.5c1.3,0.3,2.5,0.8,3.4,1.5c0.9,0.7,1.7,1.6,2.2,2.7
		c0.5,1.1,0.8,2.4,0.8,4c0,2.6-0.8,4.7-2.3,6.2c-1.5,1.5-3.6,2.4-6.2,2.8l9.1,15.3h-2.7l-8.9-15.1h-7v15.1H312.5z M314.8,358.7h6.5
		c2.9,0,5.2-0.6,6.7-1.8c1.5-1.2,2.3-3,2.3-5.4c0-2.5-0.8-4.2-2.3-5.2c-1.6-1-3.8-1.5-6.7-1.5h-6.5V358.7z"/>
	<path class="st1" d="M351.1,376.3c-2,0-3.8-0.4-5.5-1.2s-3.1-2-4.3-3.5s-2.1-3.3-2.8-5.4c-0.7-2.1-1-4.5-1-7.1s0.3-4.9,1-7
		c0.7-2.1,1.6-3.9,2.8-5.4c1.2-1.5,2.6-2.6,4.3-3.4c1.7-0.8,3.5-1.2,5.5-1.2c2,0,3.8,0.4,5.5,1.2c1.7,0.8,3.1,1.9,4.3,3.4
		c1.2,1.5,2.1,3.3,2.8,5.4c0.7,2.1,1,4.4,1,7s-0.3,5-1,7.1c-0.7,2.1-1.6,3.9-2.8,5.4c-1.2,1.5-2.6,2.7-4.3,3.5
		S353.1,376.3,351.1,376.3z M351.1,374.2c1.7,0,3.2-0.4,4.5-1.1s2.5-1.7,3.5-3.1c1-1.3,1.7-2.9,2.3-4.8c0.5-1.8,0.8-3.9,0.8-6.2
		c0-2.3-0.3-4.3-0.8-6.1c-0.5-1.8-1.3-3.4-2.3-4.7c-1-1.3-2.2-2.3-3.5-3c-1.4-0.7-2.9-1.1-4.5-1.1s-3.2,0.4-4.6,1.1
		c-1.4,0.7-2.6,1.7-3.5,3c-1,1.3-1.7,2.8-2.2,4.7c-0.5,1.8-0.8,3.9-0.8,6.1c0,2.3,0.3,4.4,0.8,6.2c0.5,1.9,1.3,3.4,2.2,4.8
		c1,1.3,2.1,2.3,3.5,3.1S349.5,374.2,351.1,374.2z"/>
	<path class="st1" d="M383.7,376.3c-2,0-3.8-0.4-5.5-1.2s-3.1-2-4.3-3.5s-2.1-3.3-2.8-5.4c-0.7-2.1-1-4.5-1-7.1s0.3-4.9,1-7
		c0.7-2.1,1.6-3.9,2.8-5.4c1.2-1.5,2.6-2.6,4.3-3.4c1.7-0.8,3.5-1.2,5.5-1.2c2,0,3.8,0.4,5.5,1.2c1.7,0.8,3.1,1.9,4.3,3.4
		c1.2,1.5,2.1,3.3,2.8,5.4c0.7,2.1,1,4.4,1,7s-0.3,5-1,7.1c-0.7,2.1-1.6,3.9-2.8,5.4c-1.2,1.5-2.6,2.7-4.3,3.5
		S385.7,376.3,383.7,376.3z M383.7,374.2c1.7,0,3.2-0.4,4.5-1.1s2.5-1.7,3.5-3.1c1-1.3,1.7-2.9,2.3-4.8c0.5-1.8,0.8-3.9,0.8-6.2
		c0-2.3-0.3-4.3-0.8-6.1c-0.5-1.8-1.3-3.4-2.3-4.7c-1-1.3-2.2-2.3-3.5-3c-1.4-0.7-2.9-1.1-4.5-1.1s-3.2,0.4-4.6,1.1
		c-1.4,0.7-2.6,1.7-3.5,3c-1,1.3-1.7,2.8-2.2,4.7c-0.5,1.8-0.8,3.9-0.8,6.1c0,2.3,0.3,4.4,0.8,6.2c0.5,1.9,1.3,3.4,2.2,4.8
		c1,1.3,2.1,2.3,3.5,3.1S382.1,374.2,383.7,374.2z"/>
	<path class="st1" d="M404.9,375.7v-32.9h3.2l6.9,19.4c0.4,1.2,0.9,2.4,1.3,3.6c0.4,1.2,0.9,2.4,1.3,3.7h0.2
		c0.4-1.2,0.9-2.5,1.2-3.7c0.4-1.2,0.8-2.4,1.2-3.6l6.9-19.4h3.3v32.9h-2.2v-21.6c0-1.4,0-2.8,0.1-4.4c0.1-1.6,0.1-3.1,0.2-4.5h-0.2
		l-2.5,7.3l-7.1,19.6h-2l-7.2-19.6l-2.6-7.3h-0.2c0.1,1.4,0.1,2.9,0.2,4.5c0.1,1.6,0.1,3.1,0.1,4.4v21.6H404.9z"/>
</g>
</svg>
